<?xml version="1.0" standalone="no"?>
<!DOCTYPE svg PUBLIC "-//W3C//DTD SVG 20010904//EN"
 "http://www.w3.org/TR/2001/REC-SVG-20010904/DTD/svg10.dtd">
<svg version="1.0" xmlns="http://www.w3.org/2000/svg"
 width="512.000000pt" height="512.000000pt" viewBox="0 0 512.000000 512.000000"
 preserveAspectRatio="xMidYMid meet">
<metadata>
Created by potrace 1.14, written by Peter Selinger 2001-2017
</metadata>
<g transform="translate(0.000000,512.000000) scale(0.100000,-0.100000)"
fill="#000000" stroke="none">
<path d="M2480 4915 c0 -182 2 -210 21 -259 27 -73 96 -148 167 -183 l57 -28
285 -5 c277 -5 286 -6 323 -29 48 -29 77 -86 77 -149 0 -57 -27 -104 -79 -139
l-34 -23 -696 0 c-401 0 -725 -5 -764 -10 -88 -13 -153 -47 -210 -110 -154
-172 -97 -439 116 -536 l62 -28 282 -6 c266 -5 283 -6 310 -26 65 -48 88 -119
81 -249 l-3 -60 -82 -3 -83 -3 -2 -167 -3 -167 -555 -5 c-486 -5 -565 -8 -635
-24 -121 -27 -188 -52 -320 -117 -388 -191 -683 -567 -772 -981 -26 -124 -24
-379 5 -515 163 -760 911 -1234 1662 -1051 115 28 217 68 325 128 262 146 321
164 540 165 230 0 263 -10 575 -178 389 -208 858 -207 1259 4 131 69 237 148
339 253 192 198 316 435 368 703 25 123 25 378 1 491 -89 417 -390 797 -782
987 -122 60 -191 85 -310 111 -70 16 -150 19 -635 24 l-555 5 -3 167 -2 167
-83 3 -82 3 -5 130 c-4 104 -9 139 -27 177 -30 66 -96 133 -162 165 l-56 28
-286 5 c-284 5 -286 5 -322 30 -49 33 -77 87 -77 144 0 79 50 144 128 166 24
6 292 10 754 10 711 0 718 0 775 22 80 30 162 112 192 193 44 118 14 269 -70
354 -98 99 -151 111 -472 111 -271 0 -282 2 -330 60 -40 47 -47 90 -47 278 l0
172 -80 0 -80 0 0 -205z m1543 -2387 c202 -56 374 -158 543 -320 163 -158 263
-313 328 -508 204 -616 -183 -1313 -824 -1485 -293 -78 -581 -49 -845 87 -66
33 -158 80 -205 104 -47 24 -125 56 -175 71 -85 25 -102 27 -285 27 -183 0
-200 -2 -285 -27 -49 -15 -128 -47 -175 -71 -47 -24 -139 -71 -205 -104 -342
-175 -730 -173 -1078 6 -318 162 -546 463 -623 822 -14 63 -18 126 -18 245 1
140 4 172 27 260 55 205 178 406 352 573 198 191 418 307 651 341 32 5 658 8
1389 7 l1330 -1 98 -27z"/>
<path d="M3669 2207 c-135 -38 -224 -137 -250 -278 -26 -141 50 -286 186 -357
73 -37 188 -42 270 -11 79 30 154 100 189 180 75 165 -1 369 -166 444 -68 31
-164 40 -229 22z m180 -190 c96 -64 96 -208 -1 -280 -33 -25 -117 -34 -158
-17 -70 29 -117 120 -100 194 12 54 38 87 91 114 55 29 113 25 168 -11z"/>
<path d="M1139 2021 l-29 -29 0 -186 0 -186 -184 0 c-181 0 -185 -1 -213 -24
l-28 -24 0 -207 0 -207 28 -24 c28 -23 32 -24 213 -24 l184 0 0 -184 c0 -181
1 -185 24 -213 l24 -28 207 0 207 0 24 28 c23 28 24 32 24 213 l0 184 186 0
186 0 29 29 29 29 0 197 0 197 -29 29 -29 29 -186 0 -186 0 0 186 0 186 -29
29 -29 29 -197 0 -197 0 -29 -29z"/>
<path d="M3080 1696 c-103 -28 -180 -89 -229 -181 -23 -44 -26 -61 -26 -150 0
-89 3 -105 27 -150 137 -258 494 -250 616 14 37 79 37 192 1 271 -49 106 -128
171 -238 196 -68 16 -92 16 -151 0z"/>
<path d="M4282 1699 c-98 -19 -186 -90 -239 -191 -23 -45 -27 -65 -28 -138 0
-77 3 -92 33 -152 106 -216 385 -259 550 -84 69 73 95 146 90 251 -9 155 -103
271 -253 310 -65 16 -88 17 -153 4z"/>
<path d="M3700 1190 c-139 -24 -240 -119 -276 -259 -40 -158 40 -317 195 -389
81 -38 192 -38 276 1 77 36 147 110 176 185 26 69 29 177 5 240 -56 153 -218
249 -376 222z m141 -193 c53 -35 79 -82 79 -140 0 -203 -286 -236 -331 -38 -9
42 5 107 30 138 53 65 157 84 222 40z"/>
</g>
</svg>
